# xmcd CD database file
#
# Track frame offsets:
#	150
#	16683
#	30546
#	45415
#	59806
#	73295
#	86299
#	104636
#	125632
#	142998
#	159612
#
# Disc length: 2310 seconds
#
# Revision: 0
# Processed by: cddbd v1.5.2PL0 Copyright (c) Steve Scherf et al.
# Submitted via: CDex 1.79
#
DISCID=9509040b
DTITLE=The Dirt Drifters - This Is My Blood
DYEAR=2011
DGENRE=Country
TTITLE0=Something Better
TTITLE1=Always A Reason
TTITLE2=There She Goes
TTITLE3=It Takes A Man
TTITLE4=Hurt Somebody
TTITLE5=Married Men And Motel Rooms
TTITLE6=I'll Shut Up Now (featuring Willie Nelson)
TTITLE7=Name On My Shirt
TTITLE8=Sun Goes Down
TTITLE9=Just Got Tonight
TTITLE10=This Is My Blood
EXTD=YEAR: 2011
EXTT0=
EXTT1=
EXTT2=
EXTT3=
EXTT4=
EXTT5=
EXTT6=
EXTT7=
EXTT8=
EXTT9=
EXTT10=
PLAYORDER=
